<svg xmlns="http://www.w3.org/2000/svg" viewBox="0 0 2000 1677.33"><g data-name="Layer 1"><polygon fill="#143c40" points="1522.87 1474.42 1969.07 841.17 1453.28 1266.5 1823.57 171.16 1341.45 948.38 1397.93 184.88 1171.64 824.17 1194.01 415.48 1072.53 794.12 1051.41 83.31 958.97 655.94 862.42 140.79 845.25 699.89 619.49 259 770.37 728.5 107.8 341.36 732.27 970.02 30.93 752.96 719.41 1169.82 110.54 1217.05 624.18 1310.93 186.09 1435.01 732.99 1470.52 1084.23 1490.05 1522.87 1474.42"/><path fill="#ff4284" d="M1061.77,787.92S1012.59,920.07,862.91,935c0,0,38.77,50.32,147.68,23,0,0-37.63,33.08-90.09,36.5,0,0,59.3,11.4,93.52-10.27,0,0-24.52,24.52-52.46,29.66,0,0,52.46,21.09,131.71-1.15s59.31,15.82,73,10.19,67.08-33,67.08-33,2.49-49,3.63-59.31-8.45-86.67-8.45-86.67l49.5-91.8L1174.62,739h-58s-17.67,18.25-20,20S1061.77,787.92,1061.77,787.92Z"/><path fill="#ff4284" d="M1082.73,784.93l9.41-22.24c-9.55,7.86-30.37,25.23-30.37,25.23S1012.59,920.07,862.91,935c0,0,38.77,50.32,147.68,23,0,0-37.63,33.08-90.09,36.5,0,0,59.3,11.4,93.52-10.27,0,0-24.52,24.52-52.46,29.66,0,0,17.1,6.86,46.5,8.62,25.35-27.11,49-61.65,49-61.65C1035.68,975.09,980.5,990,980.5,990c39.75-12.22,93.85-73.33,93.85-73.33-41.72,26.52-108.8,31.65-108.8,31.65C1035.68,910.66,1082.73,784.93,1082.73,784.93Z"/><path fill="#ffa424" d="M1195.88,964.26h-10.19s-52.5,26.09-107.81,59.23S941,1150.72,915.37,1178.66c0,0-34.21,8-80.4,37.63s-132.29,102.07-163.08,116.32l14.83,31.93s213-84.39,266-123.73l138.56-87.24,26.51-33.36,12,12.83,91.18,12.83,24.78-46.19,14.67-81.25,8.78-83.52V890.13l-29.32,11.33-16.07,37.84Z"/><g style="mix-blend-mode:multiply"><polygon fill="#ffa424" points="1142.27 1134.8 1128.05 1131.2 1129.77 1133.04 1142.27 1134.8"/><path fill="#ffa424" d="M1091.28,1153.57l21-26.38-41.77-10.58s-42.31,28.51-91.24,77.55-107.08,73-143.58,88.95-148.93,81.43-148.93,81.43,213-84.39,266-123.73Z"/></g><path fill="#ffa424" d="M1284.58,910.68s100.07-82,127.44-127,174.49-195.49,264.29-264.77l18.82,12.83s-93.23,163.37-149.68,230.94-100.07,97.93-140.27,158.45-108.63,170-131.72,237.56S1210.6,1145,1213,1135.61s15.57-77,15.57-77-.71-49.61,6.72-61.59,23.25-54,25.34-62.13S1284.58,910.68,1284.58,910.68Z"/><path fill="#ffa424" d="M1648.35,543.2,1670,521.14l18.57-32.45,9.92-32.16,15.47-4-6.1-10.9s17.45-65.81,42-79.71c0,0-.59,39.38-17.85,71.62l2.25,4.75s30.92-51.28,65.84-57.5c0,0-38.93,58.44-56,75.16,0,0,17.63-5.81,18.41.3s-14.11,24.44-14.11,24.44,15.68-8.75,17.2-3.36-24,39.48-74.54,61.42c0,0-23.34,18.26-24.25,19.94s-6.86-15.28-6.86-15.28Z"/><path fill="#ffa424" d="M1283.26,911.67l-26,124.43s5.76,23.38,12-12.61,69.4-121.28,97.91-143.09S1425.25,819,1454,762.69s110.39-122.77,137.76-152.42c18.17-19.69,52.21-58.91,70.83-80.48C1592,586.89,1494.6,683.7,1443,743.68c-13.46,15.7-23.79,28.81-29.67,37.92l-1.09,1.74-.22.35a158.05,158.05,0,0,1-11.36,15.93c-.65.8-1.3,1.62-2,2.43-5.36,6.55-11.51,13.44-18.13,20.45q-2.47,2.63-5,5.27c-1.71,1.76-3.44,3.53-5.18,5.29s-3.52,3.53-5.3,5.29c-2.67,2.65-5.37,5.28-8.07,7.89q-2.71,2.63-5.43,5.2-5.44,5.16-10.83,10.14l-5.33,4.89c-3.52,3.22-7,6.35-10.34,9.35-22.65,20.26-40.46,34.86-40.46,34.86l-1.31,1Z"/><path fill="#6a178c" d="M1148.55,976.52s-81.22,118.6-128.26,150.82c0,0,4.27,62.15,68.42,69,0,0-11.12,102.64-38.49,184.75h265.15s-54.74-52.17-65.86-71,41.91-177.91,41.91-177.91-36.38-12-28.45-72.7,31.87-148.8,31.87-148.8L1292.28,897h-23.1s-5.27,79-39.84,139.13-93,100.79-116.37,60.16,55-127.44,55-127.44L1152,974Z"/><path fill="#e3a8bd" d="M1241.85,1175c-35.6,39.06-116.36,14.48-119.38-39.63-3-53,45.5-68.43,45.5-68.43s-27.37,26.8-25.37,56.46S1175.46,1200.9,1241.85,1175Z"/><path fill="#6a178c" d="M1182.11,1381.08h133.26s-54.74-52.17-65.86-71,41.91-177.91,41.91-177.91-36.38-12-28.45-72.7,31.87-148.8,31.87-148.8l-1.72-9.22h0l-23.94,41.24s1.26,54.74-15,111.19-3.43,76.12,0,108.63-39.82,43.62-57.55,100.07C1186,1296.54,1182.88,1346.58,1182.11,1381.08Z"/><circle cx="1086.15" cy="839.9" r="26.51" fill="#ff4284"/><path fill="#fff" d="M1086.15,867.66a27.76,27.76,0,1,1,27.75-27.76A27.79,27.79,0,0,1,1086.15,867.66Zm0-53a25.27,25.27,0,1,0,25.27,25.27A25.29,25.29,0,0,0,1086.15,814.63Z"/><path fill="#ffa424" d="M1168,908.39s17.68,41.61,20,71.26S1223.28,962,1223.28,962s1.14-61.59,0-64.44S1217,880.4,1217,880.4l-20.37,10.3Z"/><path fill="#ffa424" d="M1217,880.4l-20.37,10.3-22.44,13.84c-1.6,2.16-3.31,4.5-5,6.86a367.55,367.55,0,0,1,13,38.24c12.07-11.47,27.9-31.61,37.06-63Z"/><path fill="#ffa424" d="M1141.74,716.5s-57.3,73.56-69.28,159.94l30.79-13.68s-12.83,66.71,22.24,75.27,91.52-27.37,108.63-71,10.26-75.27,10.26-75.27-8.55-47-12-54.74-29.94-27.37-29.94-27.37Z"/><path fill="#6a178c" d="M1122.5,899.32a32.9,32.9,0,0,1,13.26-27.15c14.54-10.91,36.77-12.83,36.77-12.83s5.35,17.32-1.07,30.58S1142,918.57,1122.5,899.32Z"/><path fill="#4f1169" d="M1112.66,902.71l0-2.49c.27,0,28.7-3.59,58.92-41.65l2,1.54C1142.22,899.53,1112.93,902.71,1112.66,902.71Z"/><ellipse cx="1146.45" cy="812.21" fill="#6a178c" rx="5.99" ry="12.27"/><circle cx="1135.76" cy="830.69" r="26.51" fill="#ff4284"/><path fill="#fff" d="M1135.75,858.44a27.76,27.76,0,1,1,27.76-27.75A27.78,27.78,0,0,1,1135.75,858.44Zm0-53A25.28,25.28,0,1,0,1161,830.69,25.31,25.31,0,0,0,1135.75,805.41Z"/><rect width="50.76" height="2.49" x="1059.09" y="835" fill="#fff" transform="rotate(-12.63 1084.091 835.988)"/><path fill="#6a178c" d="M1092.14,1066.89s-50.07,37.24-41.52,60.45,39.28,19.2,50.43,13.93,20.62-16.39,11.61-30.07S1088.32,1078.19,1092.14,1066.89Z"/><path fill="#ffa424" d="M1691.12 538.72s-44.63 57.86-82.26 97.78-86.68 144.89-123.17 167.67-53.6 45.29-76.41 76.23-122.63 165.13-124 248.57h0c29.43-66.78 85.19-155.56 119.92-207.84 40.2-60.51 83.82-90.87 140.27-158.44C1594.94 703.45 1672.7 570.58 1691.12 538.72zM945.13 1170.21c26.23-34.21 60.44-70.7 84.39-94.65s108.18-86.14 108.18-86.14h0c-17.63 9.58-38.51 21.3-59.82 34.07-55.31 33.14-136.85 127.23-162.51 155.17 0 0-34.21 8-80.4 37.63s-132.29 102.07-163.08 116.32c41.22-15.08 103.32-60.9 162.62-92S918.9 1204.43 945.13 1170.21zM1192.28 750l33.4 23.75 6-15.2L1216.27 732s-7.13.57-10.84 3.7-7.41 10-7.41 10z"/><rect width="79.99" height="2.49" x="1152.28" y="794.47" fill="#fff" transform="rotate(-33.38 1192.281 795.706)"/><path fill="#ff4284" d="M1225.56,690c2.28,0,36.5-21.1,63.87,4.56S1331.62,775,1327.06,832s-49.38,121.45-79.72,141.41c0,0,15.29-35.35,19.28-67.85,0,0-20.53,96.93-124,130.57,0,0,72.7-73.84,81.25-186.45l25.09-52.46-3.21-24.52-17.21,8s-12.65-35.35-32-43.91,12.25-22.28,12.25-22.28Z"/><path fill="#ff4284" d="M1289.43,694.55c-18-16.85-38.89-13.54-51.78-9.28h0s38.38-6.4,54.63,46.63,8.55,92.34-10.27,138.83l-12.62-40S1226.14,937.24,1172.64,997c-16.27,25.09-30,39.08-30,39.08,103.49-33.64,124-130.57,124-130.57-4,32.5-19.28,67.85-19.28,67.85,30.34-20,75.16-84.39,79.72-141.41S1316.8,720.21,1289.43,694.55Z"/><path fill="#ff4284" d="M1133.19,776.8s67.14.43,97.08-47.9-15.93-84.25-59.07-77.4-81.2,41.5-98.74,62.23-45.33,50.67-86.38,45.11c0,0,28.22,21.09,77,13,0,0-15,24.24-51.74,27.23,0,0,78.26,21.38,154.81-63.72C1166.12,735.32,1158.85,762.69,1133.19,776.8Z"/><path fill="#ff4284" d="M1223.79,681.83c5.55,26.09-14.07,68-60.26,86.2,0,0,21-33.17,19.66-60.11,0,0-35.92,36.42-78.26,54.77,0,0,56.7-50.5,64.28-79.15,0,0-16.38-3.42-46.74,13.26,0,0,27.79-34.22,65.43-37.64C1216.12,656.6,1222.32,674.93,1223.79,681.83Z"/><path fill="#ffa424" d="M1214.44,791.77s11.12-32.22,33.36-22.52,16.25,89.8-27.65,90.09-12.83-46-12.83-46Z"/><path fill="#ffa424" d="M1247.8,769.25c-9.33-4.07-16.7-.75-22.12,4.47h0s18.47-6.93,21.63,18.44S1230.57,852.5,1223,859l.15.21C1264.31,855.35,1269.52,778.71,1247.8,769.25Z"/><path fill="#942316" d="M1214.18,842l-2.46-.35c.35-2.52,8.89-61.71,33.87-64.57l.28,2.47C1222.79,782.17,1214.26,841.38,1214.18,842Z"/><rect width="30.66" height="2.49" x="1218.01" y="798.7" fill="#942316" transform="rotate(-36.11 1233.272 799.928)"/><path fill="#ffa424" d="M1706.36,441.49l2.62-5.82s29.6,18.5,35,34.75c0,0-20.4,5-33.37-3.05,0,0,10.56,13.74,8.85,28s-25.32,34.42-49.44,25.77l14.37-14.94s2.28-28.79,4.28-35.35,6-13.68,8.26-15.68,9-9.12,8.64-10S1706.36,441.49,1706.36,441.49Z"/><path fill="#ffa424" d="M1670,521.14s-6.17-42.3,29.19-93.36c0,0,26.18,19.23,39.07,40.6,0,0-24.73.66-33.14-7.57C1723.81,505.37,1707.07,521.42,1670,521.14Z"/><g style="mix-blend-mode:screen"><path fill="#ffa424" d="M1777.31 390.85c.84 3.52.73 8.22-1.73 14.35-6.78 16.9-31.42 50.72-31.42 50.72 17.07-16.72 56-75.16 56-75.16C1792.23 382.17 1784.51 385.92 1777.31 390.85zM1739.84 370.74c-1 16.79-3.13 42.75-7.77 62.77 17.26-32.24 17.85-71.62 17.85-71.62A38.57 38.57 0 001739.84 370.74z"/></g><path fill="#240930" d="M665.31,1549h532.82l38.24,45.07h535.46l-34.5-94.76-637.91-29.93-405.64-12.46s-278.86-7.48-290.36,0-57.49,22.44-57.49,22.44l-169.62,34.91L141.82,1594H648Z"/><polygon fill="#390c4a" points="176.31 1514.23 1737.33 1499.27 1377.98 1362.12 498.29 1377.08 176.31 1514.23"/><ellipse cx="1291.4" cy="1427.02" fill="#641482" rx="173.26" ry="31.62"/><path fill="#641482" d="M1445.91,1412.69l13.71-4.36,5,17.47-144,26.09-105.85-7.19L1123.1,1427l-4.85-1.16,4.85-17.79,30.46-4.1s71.2,4.79,72.73,5.27,150.39,4.31,150.39,4.31l57.88,1.44Z"/><ellipse cx="1291.4" cy="1409.24" fill="#ff4284" rx="168.29" ry="31.62"/><ellipse cx="1291.4" cy="1409.24" fill="#52efff" rx="95.85" ry="21.38"/><ellipse cx="622.53" cy="1427.02" fill="#641482" rx="173.26" ry="31.62"/><path fill="#641482" d="M777,1412.69l13.78-4.23,4.68,16.69-143.65,26.74L546,1444.7,454.24,1427h-5l5-18.43L484.7,1404s71.2,4.79,72.72,5.27,150.4,4.31,150.4,4.31l57.87,1.44Z"/><ellipse cx="622.53" cy="1409.24" fill="#ffa424" rx="168.29" ry="31.62"/><ellipse cx="622.53" cy="1409.24" fill="#52efff" rx="95.85" ry="21.38"/><path fill="#6d6e71" d="M1291.4 1404L1128 1416.83c15.68 12 67.6 21.25 132.65 23.51L1291.4 1404l135.52-13.48c-25.89-6.6-65.09-11.24-110.15-12.52zM593.5 1440.39L622.38 1404l136.22-13.34c-25.56-6.59-64.34-11.25-109-12.61l-27.21 26L459.22 1416.9C475.16 1428.94 527.79 1438.25 593.5 1440.39z"/><polygon fill="#110417" points="829.96 1480.45 856.12 1480.45 897.43 1381.47 882.5 1381.47 829.96 1480.45"/><polygon fill="#110417" points="884.61 1480.45 911.59 1480.45 928.16 1381.47 912.8 1381.47 884.61 1480.45"/><polygon fill="#110417" points="937.98 1480.45 957.71 1480.45 953.32 1381.47 942.38 1381.47 937.98 1480.45"/><polygon fill="#110417" points="983.36 1480.45 1011.08 1480.45 983.36 1381.47 967.53 1381.47 983.36 1480.45"/><polygon fill="#110417" points="1033.35 1480.45 1069.71 1480.45 1018.42 1381.47 998.26 1381.47 1033.35 1480.45"/><polygon fill="#340c45" points="171.48 1576.39 625.07 1575.68 644.35 1532.93 194.08 1532.93 171.48 1576.39"/><polygon fill="#340c45" points="1736.61 1576.39 1283.01 1575.68 1263.73 1532.93 1714.01 1532.93 1736.61 1576.39"/><polygon fill="#6a178c" points="1179.4 1486.8 1244.24 1486.8 1229.7 1469.37 1163.99 1469.37 1179.4 1486.8"/><polygon fill="#6a178c" points="1058.21 1413.15 1075.24 1413.15 1071.42 1408.57 1054.16 1408.57 1058.21 1413.15"/><polygon fill="#6a178c" points="1070.35 1407.89 1073.57 1409.23 1075.24 1413.15 1059.18 1412.09 1054.16 1408.57 1055.62 1405.33 1060.73 1406.88 1066.04 1407.28 1070.35 1407.89"/><polygon fill="#b64de0" points="1059.06 1409.23 1073.57 1409.23 1070.31 1405.33 1055.62 1405.33 1059.06 1409.23"/><polygon fill="#6a178c" points="1094.68 1413.15 1111.7 1413.15 1107.88 1408.57 1090.63 1408.57 1094.68 1413.15"/><polygon fill="#6a178c" points="1106.82 1407.89 1110.03 1409.23 1111.7 1413.15 1095.64 1412.09 1090.63 1408.57 1092.08 1405.33 1097.2 1406.88 1102.51 1407.28 1106.82 1407.89"/><polygon fill="#52efff" points="1095.53 1409.23 1110.03 1409.23 1106.78 1405.33 1092.08 1405.33 1095.53 1409.23"/><polygon fill="#6a178c" points="1072.22 1436.59 1089.24 1436.59 1085.43 1432.01 1068.17 1432.01 1072.22 1436.59"/><polygon fill="#6a178c" points="1084.36 1431.33 1087.57 1432.67 1089.24 1436.59 1073.19 1435.53 1068.17 1432.01 1069.62 1428.77 1074.74 1430.32 1080.05 1430.72 1084.36 1431.33"/><polygon fill="#52efff" points="1073.07 1432.67 1087.57 1432.67 1084.32 1428.77 1069.62 1428.77 1073.07 1432.67"/><polygon fill="#6a178c" points="1085.81 1461.69 1102.84 1461.69 1099.02 1457.11 1081.76 1457.11 1085.81 1461.69"/><polygon fill="#6a178c" points="1097.95 1456.43 1101.16 1457.77 1102.84 1461.69 1086.78 1460.63 1081.76 1457.11 1083.21 1453.88 1088.33 1455.42 1093.64 1455.82 1097.95 1456.43"/><polygon fill="#b64de0" points="1086.66 1457.77 1101.16 1457.77 1097.91 1453.88 1083.21 1453.88 1086.66 1457.77"/><polygon fill="#6a178c" points="1099.4 1486.79 1116.43 1486.79 1112.61 1482.21 1095.35 1482.21 1099.4 1486.79"/><polygon fill="#6a178c" points="1111.54 1481.53 1114.76 1482.88 1116.43 1486.79 1100.37 1485.73 1095.35 1482.21 1096.81 1478.98 1101.92 1480.52 1107.23 1480.93 1111.54 1481.53"/><polygon fill="#b64de0" points="1100.25 1482.88 1114.76 1482.88 1111.5 1478.98 1096.81 1478.98 1100.25 1482.88"/><polygon fill="#6a178c" points="1140.01 1486.79 1157.03 1486.79 1153.21 1482.21 1135.96 1482.21 1140.01 1486.79"/><polygon fill="#6a178c" points="1152.15 1481.53 1155.36 1482.88 1157.03 1486.79 1140.97 1485.73 1135.96 1482.21 1137.41 1478.98 1142.53 1480.52 1147.84 1480.93 1152.15 1481.53"/><polygon fill="#52efff" points="1140.86 1482.88 1155.36 1482.88 1152.11 1478.98 1137.41 1478.98 1140.86 1482.88"/><polygon fill="#6a178c" points="854.2 1413.15 837.17 1413.15 840.99 1408.57 858.24 1408.57 854.2 1413.15"/><polygon fill="#6a178c" points="842.05 1407.89 838.84 1409.23 837.17 1413.15 853.23 1412.09 858.24 1408.57 856.79 1405.33 851.67 1406.88 846.37 1407.28 842.05 1407.89"/><polygon fill="#52efff" points="853.34 1409.23 838.84 1409.23 842.09 1405.33 856.79 1405.33 853.34 1409.23"/><polygon fill="#6a178c" points="817.73 1413.15 800.71 1413.15 804.53 1408.57 821.78 1408.57 817.73 1413.15"/><polygon fill="#6a178c" points="805.59 1407.89 802.38 1409.23 800.71 1413.15 816.76 1412.09 821.78 1408.57 820.33 1405.33 815.21 1406.88 809.9 1407.28 805.59 1407.89"/><polygon fill="#b64de0" points="816.88 1409.23 802.38 1409.23 805.63 1405.33 820.33 1405.33 816.88 1409.23"/><polygon fill="#6a178c" points="840.19 1436.59 823.16 1436.59 826.98 1432.01 844.24 1432.01 840.19 1436.59"/><polygon fill="#6a178c" points="828.05 1431.33 824.83 1432.67 823.16 1436.59 839.22 1435.53 844.24 1432.01 842.78 1428.77 837.66 1430.32 832.36 1430.72 828.05 1431.33"/><polygon fill="#b64de0" points="839.34 1432.67 824.83 1432.67 828.09 1428.77 842.78 1428.77 839.34 1432.67"/><polygon fill="#6a178c" points="826.6 1461.69 809.57 1461.69 813.39 1457.11 830.64 1457.11 826.6 1461.69"/><polygon fill="#6a178c" points="814.46 1456.43 811.24 1457.77 809.57 1461.69 825.63 1460.63 830.64 1457.11 829.19 1453.88 824.07 1455.42 818.77 1455.82 814.46 1456.43"/><polygon fill="#52efff" points="825.75 1457.77 811.24 1457.77 814.5 1453.88 829.19 1453.88 825.75 1457.77"/><polygon fill="#6a178c" points="813.01 1486.79 795.98 1486.79 799.8 1482.21 817.05 1482.21 813.01 1486.79"/><polygon fill="#6a178c" points="800.86 1481.53 797.65 1482.88 795.98 1486.79 812.04 1485.73 817.05 1482.21 815.6 1478.98 810.48 1480.52 805.18 1480.93 800.86 1481.53"/><polygon fill="#52efff" points="812.15 1482.88 797.65 1482.88 800.9 1478.98 815.6 1478.98 812.15 1482.88"/><polygon fill="#6a178c" points="772.4 1486.79 755.38 1486.79 759.2 1482.21 776.45 1482.21 772.4 1486.79"/><polygon fill="#6a178c" points="760.26 1481.53 757.05 1482.88 755.38 1486.79 771.43 1485.73 776.45 1482.21 775 1478.98 769.88 1480.52 764.57 1480.93 760.26 1481.53"/><polygon fill="#52efff" points="771.55 1482.88 757.05 1482.88 760.3 1478.98 775 1478.98 771.55 1482.88"/><polygon fill="#f24835" points="1331.82 1486.8 1398.39 1486.8 1379.89 1469.37 1316.2 1469.37 1331.82 1486.8"/><polygon fill="#3da7ff" points="1523.35 1486.8 1602.86 1486.8 1573.14 1469.37 1498.8 1469.37 1523.35 1486.8"/><polygon fill="#ffa424" points="1414.58 1486.8 1508.54 1486.8 1484.89 1469.37 1395.64 1469.37 1414.58 1486.8"/><polygon fill="#b64de0" points="1255.36 1486.8 1320.66 1486.8 1303.94 1469.37 1241.41 1469.37 1255.36 1486.8"/><polygon fill="#f24835" points="726.72 1489.16 661.87 1489.16 676.42 1471.73 742.13 1471.73 726.72 1489.16"/><polygon fill="#b64de0" points="574.3 1489.16 507.73 1489.16 526.22 1471.73 589.92 1471.73 574.3 1489.16"/><polygon fill="#ffa424" points="382.76 1489.16 303.25 1489.16 332.97 1471.73 407.31 1471.73 382.76 1489.16"/><polygon fill="#3da7ff" points="491.53 1489.16 397.58 1489.16 421.22 1471.73 510.48 1471.73 491.53 1489.16"/><polygon fill="#6a178c" points="650.75 1489.16 585.46 1489.16 602.17 1471.73 664.71 1471.73 650.75 1489.16"/><path fill="#110417" d="M626.83 1404c0-.55-2-1-4.45-1s-4.44.44-4.44 1 2 1 4.44 1S626.83 1404.52 626.83 1404zM1295.84 1404c0-.55-2-1-4.44-1s-4.45.44-4.45 1 2 1 4.45 1S1295.84 1404.52 1295.84 1404z"/><polygon fill="#f24835" points="858.24 1435.96 874.69 1435.96 873.1 1425.01 859.39 1425.01 858.24 1435.96"/><polygon fill="#f24835" points="941.97 1406.89 953.72 1406.89 952.59 1399.07 942.79 1399.07 941.97 1406.89"/><polygon fill="#f24835" points="1029.2 1454.88 1054.16 1454.88 1051.76 1438.27 1030.94 1438.27 1029.2 1454.88"/><polygon fill="#fff" points="892.51 1460.53 913.47 1460.53 911.45 1446.57 893.97 1446.57 892.51 1460.53"/><polygon fill="#fff" points="969.04 1390.32 985.16 1390.32 983.6 1379.59 970.16 1379.59 969.04 1390.32"/><path fill="#b64de0" d="M455.26 1420.63l-4.17 8.45s5.74 6.78 17.21 8.94l2.6-9.73S458.13 1423.07 455.26 1420.63zM789.43 1420.32l3.47 8.76s-8.68 7.62-17 9.13l-2.08-9.92S786.81 1424.75 789.43 1420.32zM766.1 1431.43l3.17 8.94a188.33 188.33 0 01-21.2 4.07v-10.08zM740.42 1436.09l1.71 9.26a145 145 0 01-19.78 3.17v-10.58zM715.85 1439.59l1.81 10.39s-16.86 1.73-24.85 1.73l-.87-10.62zM685.56 1442.31l1.82 9.4s-11.34 1.32-20.85 1.67v-10zM659.62 1443.37v10s-13.29-.23-20.33 0v-8.94z"/><polygon fill="#b64de0" points="631.73 1443.37 631.73 1453.38 609.57 1453.38 610.62 1443.37 631.73 1443.37"/><path fill="#b64de0" d="M604.88 1443.37v10s-13.81.68-23.46-.23l1.83-9.78zM577.51 1443.37l-1 8.87s-11.34.22-17.47-.46l1.7-10.12S574.51 1443.71 577.51 1443.37zM555.23 1440.37l-1.44 11.07s-14.73-.64-20.2-1.46l2.09-10.71S549.23 1440.67 555.23 1440.37zM531.11 1438.71l-1.56 10.57s-14.34-.79-19.55-2.16l2.61-10.92A63.06 63.06 0 00531.11 1438.71zM507.73 1436.2l-1.9 9.16s-16.94-2-19.42-3.13l3.65-9.55S500.62 1435.6 507.73 1436.2zM486.41 1432.22l-2.74 9.44s-9.45-1-12.77-2.39l2.22-10S482.76 1431.77 486.41 1432.22zM1124.66 1420.63l-4.17 8.45s5.73 6.78 17.2 8.94l2.61-9.73S1127.53 1423.07 1124.66 1420.63zM1458.83 1420.32l3.47 8.76s-8.69 7.62-17 9.13l-2.08-9.92S1456.21 1424.75 1458.83 1420.32zM1435.49 1431.43l3.18 8.94a188.33 188.33 0 01-21.2 4.07v-10.08zM1409.82 1436.09l1.71 9.26a145.33 145.33 0 01-19.78 3.17v-10.58zM1385.25 1439.59l1.81 10.39s-16.86 1.73-24.85 1.73l-.87-10.62zM1355 1442.31l1.83 9.4s-11.34 1.32-20.85 1.67v-10zM1329 1443.37v10s-13.3-.23-20.33 0v-8.94z"/><polygon fill="#b64de0" points="1301.13 1443.37 1301.13 1453.38 1278.97 1453.38 1280.01 1443.37 1301.13 1443.37"/><path fill="#b64de0" d="M1274.28 1443.37v10s-13.82.68-23.46-.23l1.82-9.78zM1246.91 1443.37l-1 8.87s-11.34.22-17.47-.46l1.7-10.12S1243.91 1443.71 1246.91 1443.37zM1224.62 1440.37l-1.43 11.07s-14.73-.64-20.2-1.46l2.08-10.71S1218.63 1440.67 1224.62 1440.37zM1200.51 1438.71l-1.56 10.57s-14.34-.79-19.55-2.16l2.61-10.92A63.06 63.06 0 001200.51 1438.71zM1177.12 1436.2l-1.89 9.16s-16.94-2-19.42-3.13l3.65-9.55S1170 1435.6 1177.12 1436.2zM1155.81 1432.22l-2.74 9.44s-9.45-1-12.77-2.39l2.22-10S1152.16 1431.77 1155.81 1432.22z"/><path fill="#6a178c" d="M1067.57,1493.67c0-1.52-4.32-2.75-9.64-2.75s-9.64,1.23-9.64,2.75,4.31,2.76,9.64,2.76S1067.57,1495.2,1067.57,1493.67Z"/><path fill="#6a178c" d="M1055.9,1486.7l-6.33,1.29-1.28,5.68s9.36,1,10.37.92,4.68-1.47,5.78-1.47a16.4,16.4,0,0,1,3.13.55l-1.28-5.51s-2.58-.73-3.68-.91-6-.55-6-.55Z"/><path fill="#b64de0" d="M1066.29,1488.16c0-1.52-3.74-2.75-8.36-2.75s-8.37,1.23-8.37,2.75,3.74,2.76,8.37,2.76S1066.29,1489.69,1066.29,1488.16Z"/><path fill="#6a178c" d="M1649,1480.84c0-1.52-4.32-2.76-9.65-2.76s-9.64,1.24-9.64,2.76,4.32,2.75,9.64,2.75S1649,1482.36,1649,1480.84Z"/><path fill="#6a178c" d="M1637.34,1473.86l-6.33,1.29-1.29,5.69s9.37,1,10.38.92,4.68-1.47,5.78-1.47a16.57,16.57,0,0,1,3.13.55l-1.28-5.51s-2.58-.74-3.68-.92-6-.55-6-.55Z"/><path fill="#52efff" d="M1647.73,1475.33c0-1.52-3.74-2.76-8.37-2.76s-8.36,1.24-8.36,2.76,3.74,2.75,8.36,2.75S1647.73,1476.85,1647.73,1475.33Z"/><path fill="#6a178c" d="M1602.86,1461.12c0-1.52-4.31-2.75-9.64-2.75s-9.64,1.23-9.64,2.75,4.32,2.76,9.64,2.76S1602.86,1462.64,1602.86,1461.12Z"/><path fill="#6a178c" d="M1591.2,1454.14l-6.33,1.3-1.29,5.68s9.37,1,10.38.92,4.68-1.47,5.78-1.47a16.41,16.41,0,0,1,3.12.55l-1.27-5.51s-2.58-.73-3.69-.92-6-.55-6-.55Z"/><path fill="#52efff" d="M1601.59,1455.61c0-1.52-3.75-2.75-8.37-2.75s-8.37,1.23-8.37,2.75,3.75,2.76,8.37,2.76S1601.59,1457.13,1601.59,1455.61Z"/><ellipse cx="1550.83" cy="1445.06" fill="#6a178c" rx="9.64" ry="2.75"/><path fill="#6a178c" d="M1548.81,1438.08l-6.33,1.3-1.29,5.68s9.36,1,10.38.92,4.68-1.47,5.78-1.47a16.41,16.41,0,0,1,3.12.55l-1.27-5.51s-2.58-.73-3.69-.92-6-.55-6-.55Z"/><path fill="#b64de0" d="M1559.2,1439.55c0-1.52-3.75-2.75-8.37-2.75s-8.37,1.23-8.37,2.75,3.75,2.76,8.37,2.76S1559.2,1441.07,1559.2,1439.55Z"/><path fill="#6a178c" d="M1518.18,1443.89c0-1.52-4.32-2.76-9.64-2.76s-9.64,1.24-9.64,2.76,4.32,2.75,9.64,2.75S1518.18,1445.41,1518.18,1443.89Z"/><path fill="#6a178c" d="M1506.52,1436.91l-6.33,1.29-1.29,5.69s9.36,1,10.37.92,4.69-1.47,5.79-1.47a16.41,16.41,0,0,1,3.12.55l-1.27-5.51s-2.59-.74-3.69-.92-6-.55-6-.55Z"/><path fill="#52efff" d="M1516.91,1438.38c0-1.52-3.75-2.76-8.37-2.76s-8.37,1.24-8.37,2.76,3.75,2.75,8.37,2.75S1516.91,1439.9,1516.91,1438.38Z"/><path fill="#6a178c" d="M1479,1456.38c0-1.53-4.32-2.76-9.64-2.76s-9.64,1.23-9.64,2.76,4.31,2.75,9.64,2.75S1479,1457.9,1479,1456.38Z"/><path fill="#6a178c" d="M1467.31,1449.4l-6.33,1.29-1.29,5.69s9.36,1,10.37.91,4.69-1.47,5.79-1.47a16.15,16.15,0,0,1,3.12.56l-1.27-5.51s-2.59-.74-3.69-.92-6-.55-6-.55Z"/><path fill="#b64de0" d="M1477.7,1450.87c0-1.53-3.75-2.76-8.37-2.76s-8.37,1.23-8.37,2.76,3.75,2.75,8.37,2.75S1477.7,1452.39,1477.7,1450.87Z"/><path fill="#6a178c" d="M281.58,1480.84c0-1.52,4.32-2.76,9.65-2.76s9.64,1.24,9.64,2.76-4.32,2.75-9.64,2.75S281.58,1482.36,281.58,1480.84Z"/><path fill="#6a178c" d="M293.25,1473.86l6.33,1.29,1.29,5.69s-9.37,1-10.38.92-4.68-1.47-5.78-1.47a16.57,16.57,0,0,0-3.13.55l1.28-5.51s2.58-.74,3.68-.92,6-.55,6-.55Z"/><path fill="#b64de0" d="M282.86,1475.33c0-1.52,3.74-2.76,8.37-2.76s8.36,1.24,8.36,2.76-3.74,2.75-8.36,2.75S282.86,1476.85,282.86,1475.33Z"/><path fill="#6a178c" d="M327.73,1461.12c0-1.52,4.31-2.75,9.64-2.75s9.64,1.23,9.64,2.75-4.32,2.76-9.64,2.76S327.73,1462.64,327.73,1461.12Z"/><path fill="#6a178c" d="M339.39,1454.14l6.33,1.3,1.29,5.68s-9.37,1-10.38.92-4.68-1.47-5.78-1.47a16.41,16.41,0,0,0-3.12.55l1.27-5.51s2.58-.73,3.69-.92,6-.55,6-.55Z"/><path fill="#fff" d="M329,1455.61c0-1.52,3.75-2.75,8.37-2.75s8.37,1.23,8.37,2.75-3.75,2.76-8.37,2.76S329,1457.13,329,1455.61Z"/><ellipse cx="379.76" cy="1445.06" fill="#6a178c" rx="9.64" ry="2.75"/><path fill="#6a178c" d="M381.78,1438.08l6.33,1.3,1.29,5.68s-9.37,1-10.38.92-4.68-1.47-5.78-1.47a16.41,16.41,0,0,0-3.12.55l1.27-5.51s2.58-.73,3.69-.92,6-.55,6-.55Z"/><path fill="#b64de0" d="M371.39,1439.55c0-1.52,3.75-2.75,8.37-2.75s8.37,1.23,8.37,2.75-3.75,2.76-8.37,2.76S371.39,1441.07,371.39,1439.55Z"/><path fill="#6a178c" d="M412.41,1443.89c0-1.52,4.32-2.76,9.64-2.76s9.64,1.24,9.64,2.76-4.32,2.75-9.64,2.75S412.41,1445.41,412.41,1443.89Z"/><path fill="#6a178c" d="M424.07,1436.91l6.33,1.29,1.29,5.69s-9.36,1-10.37.92-4.69-1.47-5.79-1.47a16.41,16.41,0,0,0-3.12.55l1.27-5.51s2.59-.74,3.69-.92,6-.55,6-.55Z"/><path fill="#fff" d="M413.68,1438.38c0-1.52,3.75-2.76,8.37-2.76s8.37,1.24,8.37,2.76-3.75,2.75-8.37,2.75S413.68,1439.9,413.68,1438.38Z"/><path fill="#6a178c" d="M451.62,1456.38c0-1.53,4.32-2.76,9.64-2.76s9.64,1.23,9.64,2.76-4.31,2.75-9.64,2.75S451.62,1457.9,451.62,1456.38Z"/><path fill="#6a178c" d="M463.28,1449.4l6.33,1.29,1.29,5.69s-9.36,1-10.37.91-4.69-1.47-5.79-1.47a16.15,16.15,0,0,0-3.12.56l1.27-5.51s2.59-.74,3.69-.92,6-.55,6-.55Z"/><path fill="#fff" d="M452.89,1450.87c0-1.53,3.75-2.76,8.37-2.76s8.37,1.23,8.37,2.76-3.75,2.75-8.37,2.75S452.89,1452.39,452.89,1450.87Z"/><path fill="#6a178c" d="M1009.64,1493.67c0-1.52-4.32-2.75-9.64-2.75s-9.64,1.23-9.64,2.75,4.32,2.76,9.64,2.76S1009.64,1495.2,1009.64,1493.67Z"/><path fill="#6a178c" d="M998,1486.7l-6.33,1.29-1.29,5.68s9.36,1,10.37.92,4.69-1.47,5.79-1.47a16.41,16.41,0,0,1,3.12.55l-1.27-5.51s-2.59-.73-3.69-.91-6-.55-6-.55Z"/><path fill="#fff" d="M1008.37,1488.16c0-1.52-3.75-2.75-8.37-2.75s-8.37,1.23-8.37,2.75,3.75,2.76,8.37,2.76S1008.37,1489.69,1008.37,1488.16Z"/><path fill="#6a178c" d="M958.59,1493.67c0-1.52-4.31-2.75-9.64-2.75s-9.64,1.23-9.64,2.75,4.32,2.76,9.64,2.76S958.59,1495.2,958.59,1493.67Z"/><path fill="#6a178c" d="M946.93,1486.7,940.6,1488l-1.29,5.68s9.37,1,10.38.92,4.68-1.47,5.78-1.47a16.41,16.41,0,0,1,3.12.55l-1.27-5.51s-2.58-.73-3.68-.91-6-.55-6-.55Z"/><path fill="#b64de0" d="M957.32,1488.16c0-1.52-3.74-2.75-8.37-2.75s-8.36,1.23-8.36,2.75,3.74,2.76,8.36,2.76S957.32,1489.69,957.32,1488.16Z"/><path fill="#6a178c" d="M906.39,1493.67c0-1.52-4.32-2.75-9.64-2.75s-9.64,1.23-9.64,2.75,4.31,2.76,9.64,2.76S906.39,1495.2,906.39,1493.67Z"/><path fill="#6a178c" d="M894.72,1486.7l-6.33,1.29-1.28,5.68s9.36,1,10.37.92,4.68-1.47,5.78-1.47a16.4,16.4,0,0,1,3.13.55l-1.28-5.51s-2.58-.73-3.68-.91-6-.55-6-.55Z"/><path fill="#fff" d="M905.11,1488.16c0-1.52-3.74-2.75-8.36-2.75s-8.37,1.23-8.37,2.75,3.74,2.76,8.37,2.76S905.11,1489.69,905.11,1488.16Z"/><path fill="#6a178c" d="M847.81,1493.67c0-1.52-4.32-2.75-9.64-2.75s-9.64,1.23-9.64,2.75,4.32,2.76,9.64,2.76S847.81,1495.2,847.81,1493.67Z"/><path fill="#6a178c" d="M836.15,1486.7l-6.33,1.29-1.29,5.68s9.36,1,10.37.92,4.69-1.47,5.79-1.47a16.41,16.41,0,0,1,3.12.55l-1.27-5.51s-2.59-.73-3.69-.91-6-.55-6-.55Z"/><path fill="#b64de0" d="M846.54,1488.16c0-1.52-3.75-2.75-8.37-2.75s-8.37,1.23-8.37,2.75,3.75,2.76,8.37,2.76S846.54,1489.69,846.54,1488.16Z"/><path fill="#52efff" d="M1689.68,1554.66a4,4,0,1,0-4,4A4,4,0,0,0,1689.68,1554.66Z"/><path fill="#fff" d="M1629.21,1554.66a4,4,0,1,0-4,4A4,4,0,0,0,1629.21,1554.66Z"/><path fill="#52efff" d="M1568.74,1554.66a4,4,0,1,0-4,4A4,4,0,0,0,1568.74,1554.66Z"/><path fill="#fff" d="M1508.26,1554.66a4,4,0,1,0-4,4A4,4,0,0,0,1508.26,1554.66Z"/><path fill="#52efff" d="M1447.79 1554.66a4 4 0 10-4 4A4 4 0 001447.79 1554.66zM1387.32 1554.66a4 4 0 10-4 4A4 4 0 001387.32 1554.66zM1326.84 1554.66a4 4 0 10-4 4A4 4 0 001326.84 1554.66z"/><path fill="#fff" d="M585.82 1554.66a4 4 0 10-4 4A4 4 0 00585.82 1554.66zM525.35 1554.66a4 4 0 10-4 4A4 4 0 00525.35 1554.66z"/><path fill="#52efff" d="M464.87,1554.66a4,4,0,1,0-4,4A4,4,0,0,0,464.87,1554.66Z"/><path fill="#fff" d="M404.4,1554.66a4,4,0,1,0-4,4A4,4,0,0,0,404.4,1554.66Z"/><path fill="#52efff" d="M343.93 1554.66a4 4 0 10-4 4A4 4 0 00343.93 1554.66zM283.45 1554.66a4 4 0 10-4 4A4 4 0 00283.45 1554.66zM223 1554.66a4 4 0 10-4 4A4 4 0 00223 1554.66z"/><polygon fill="#fff" points="1767.76 1586.58 1248.76 1586.58 1211.74 1527.52 662.05 1527.52 636.04 1586.58 146.65 1586.58 146.65 1579.12 631.17 1579.12 657.18 1520.06 1215.87 1520.06 1252.88 1579.12 1767.76 1579.12 1767.76 1586.58"/><path fill="#ffa424" d="M697.55,1343.45l-10.83,21.09s-31.94,32.51-77.55,45c0,0,7.41-14.25,26.8-26.8,0,0-59.31,29.08-95.8,31.93,0,0,12-38.77,45.62-50.18,0,0-27.37-.57-42.2-17.67,0,0,69.57,2.28,128.3-14.26s41.05-3.42,41.05-3.42Z"/><path fill="#ffa424" d="M566.81 1409.59s32.42-37.6 59.58-45C626.39 1364.54 591.06 1395.15 566.81 1409.59zM540.17 1414.72s23.78-43.51 65.47-53.13C605.64 1361.59 560.44 1384.89 540.17 1414.72z"/></g></svg>